<?xml version="1.0" encoding="UTF-8" standalone="no"?><!-- Generator: Gravit.io --><svg xmlns="http://www.w3.org/2000/svg" xmlns:xlink="http://www.w3.org/1999/xlink" style="isolation:isolate" viewBox="0 0 512 512" width="512pt" height="512pt"><defs><clipPath id="_clipPath_wD19Bd0iavJNb7douHO9jjJwEWf7s8lk"><rect width="512" height="512"/></clipPath></defs><g clip-path="url(#_clipPath_wD19Bd0iavJNb7douHO9jjJwEWf7s8lk)"><ellipse vector-effect="non-scaling-stroke" cx="256" cy="261.49999999999994" rx="256" ry="261.5" fill="rgb(235,235,235)"/><path d=" M 256.001 0 C 114.634 0 0 117.515 0 262.48 C 0 378.453 73.352 476.841 175.07 511.549 C 187.863 513.978 192.561 505.855 192.561 498.922 C 192.561 492.664 192.322 471.985 192.214 450.053 C 120.992 465.931 105.964 419.084 105.964 419.084 C 94.319 388.744 77.54 380.678 77.54 380.678 C 54.314 364.387 79.291 364.72 79.291 364.72 C 104.998 366.573 118.535 391.77 118.535 391.77 C 141.367 431.898 178.423 420.296 193.031 413.591 C 195.328 396.624 201.964 385.047 209.284 378.492 C 152.424 371.853 92.649 349.347 92.649 248.772 C 92.649 220.117 102.649 196.7 119.027 178.319 C 116.368 171.707 107.607 145.011 121.506 108.856 C 121.506 108.856 143.004 101.801 191.925 135.762 C 212.344 129.944 234.245 127.029 256.001 126.931 C 277.757 127.029 299.674 129.944 320.133 135.762 C 368.996 101.801 390.464 108.856 390.464 108.856 C 404.397 145.011 395.632 171.707 392.973 178.319 C 409.387 196.7 419.319 220.115 419.319 248.772 C 419.319 349.586 359.431 371.785 302.427 378.282 C 311.608 386.428 319.79 402.403 319.79 426.89 C 319.79 462.009 319.493 490.276 319.493 498.922 C 319.493 505.907 324.101 514.092 337.079 511.514 C 438.74 476.767 512 378.414 512 262.48 C 512 117.515 397.382 0 256.001 0 Z " fill="rgb(70,70,70)"/><path d=" M 95.881 373.91 C 95.319 375.213 93.315 375.604 91.494 374.711 C 89.637 373.854 88.593 372.076 89.195 370.766 C 89.747 369.424 91.751 369.049 93.604 369.951 C 95.466 370.805 96.526 372.601 95.881 373.91 M 108.474 385.43 C 107.253 386.591 104.866 386.051 103.246 384.217 C 101.571 382.387 101.258 379.941 102.497 378.762 C 103.756 377.603 106.071 378.144 107.749 379.976 C 109.424 381.827 109.749 384.258 108.472 385.432 M 117.113 400.169 C 115.543 401.287 112.977 400.239 111.393 397.905 C 109.825 395.572 109.825 392.773 111.427 391.651 C 113.018 390.529 115.543 391.538 117.149 393.853 C 118.716 396.227 118.716 399.027 117.111 400.171 M 131.722 417.241 C 130.318 418.826 127.331 418.402 125.142 416.236 C 122.906 414.12 122.281 411.117 123.689 409.53 C 125.108 407.94 128.114 408.387 130.318 410.534 C 132.541 412.646 133.22 415.672 131.724 417.241 M 150.603 423.005 C 149.987 425.06 147.107 425.994 144.208 425.121 C 141.313 424.222 139.418 421.813 140.002 419.736 C 140.604 417.667 143.495 416.694 146.417 417.628 C 149.308 418.524 151.207 420.914 150.605 423.005 M 172.094 425.449 C 172.166 427.614 169.707 429.409 166.663 429.449 C 163.601 429.516 161.126 427.765 161.094 425.636 C 161.094 423.45 163.497 421.671 166.557 421.62 C 169.601 421.558 172.094 423.297 172.094 425.449 M 193.204 424.619 C 193.569 426.731 191.453 428.901 188.431 429.477 C 185.46 430.033 182.709 428.73 182.33 426.636 C 181.96 424.471 184.117 422.303 187.082 421.741 C 190.11 421.202 192.818 422.472 193.204 424.619" fill="rgb(70,70,70)"/></g></svg>